<svg version="1.1" id="Layer_1" xmlns="http://www.w3.org/2000/svg" xmlns:xlink="http://www.w3.org/1999/xlink" x="0px" y="0px"
	 width="100%" viewBox="0 0 500 500" enable-background="new 0 0 500 500" xml:space="preserve">
<path fill="#010100" opacity="1.000000" stroke="none" 
	d="
M283.000000,501.000000 
	C188.666687,501.000000 94.833382,501.000000 1.000050,501.000000 
	C1.000034,334.333405 1.000034,167.666794 1.000017,1.000140 
	C167.666565,1.000093 334.333130,1.000093 500.999756,1.000047 
	C500.999847,167.666519 500.999847,334.333038 500.999939,500.999786 
	C428.500000,501.000000 356.000000,501.000000 283.000000,501.000000 
M204.739532,259.936798 
	C205.574814,257.663818 206.410095,255.390869 207.750153,252.629105 
	C209.907883,246.901184 212.065598,241.173264 214.750305,234.947021 
	C215.754211,232.293076 216.758118,229.639130 218.113022,226.350067 
	C219.393127,222.894699 220.673233,219.439331 222.428055,215.444061 
	C225.497116,207.676376 228.566177,199.908676 232.034470,191.130539 
	C235.765503,200.252365 238.982971,208.118622 242.215897,216.704910 
	C243.314072,219.385269 244.412262,222.065643 245.852570,225.581070 
	C249.392563,219.641403 252.726013,214.429199 255.577972,208.965637 
	C256.204346,207.765732 255.118835,205.672211 254.784027,203.268921 
	C250.385956,192.450256 246.063553,181.599365 241.488342,170.856140 
	C240.952469,169.597870 238.988892,168.090851 237.746002,168.141541 
	C232.849335,168.341293 227.975937,169.115189 223.096512,169.697830 
	C223.028427,169.705948 223.003693,170.000351 222.942642,170.154785 
	C218.615646,181.099228 214.287018,192.042999 209.421097,203.433624 
	C208.262131,206.583038 207.103180,209.732452 205.418915,213.300018 
	C204.963593,214.317627 204.508255,215.335251 203.377029,216.071457 
	C199.027222,208.609604 194.719513,201.122559 190.283630,193.712219 
	C189.593826,192.559845 188.353745,190.970490 187.308380,190.923920 
	C181.310272,190.656662 175.294113,190.793884 168.716690,190.793884 
	C178.144943,206.744690 187.088791,221.875961 195.631317,237.580963 
	C194.729843,240.044861 193.828384,242.508774 192.398972,245.422806 
	C191.613190,247.619873 190.827408,249.816956 189.565659,252.520126 
	C188.759659,254.682251 187.953659,256.844391 186.740250,259.584290 
	C186.123642,261.314453 185.507050,263.044586 184.342102,265.246490 
	C178.237167,280.338074 172.132217,295.429688 165.866104,310.919708 
	C171.811310,310.919708 176.976822,311.102295 182.113434,310.797760 
	C183.483780,310.716522 185.469681,309.435059 185.975647,308.210114 
	C189.670044,299.265839 193.059052,290.195435 196.927444,280.616821 
	C197.674194,278.434418 198.420944,276.251984 199.721146,273.577942 
	C200.466400,271.047516 201.211655,268.517059 202.422348,265.493469 
	C203.003448,263.791107 203.584549,262.088715 204.739532,259.936798 
M275.989624,256.218567 
	C275.176270,254.083542 274.362946,251.948517 273.360382,249.064789 
	C271.790314,245.362595 270.220245,241.660385 268.588959,237.179550 
	C269.217987,235.685883 269.683655,234.095459 270.501984,232.713928 
	C276.773499,222.126190 283.114746,211.579758 289.431763,201.018982 
	C291.356171,197.801727 293.272583,194.579697 295.546661,190.766190 
	C289.529877,190.766190 284.366943,190.491425 279.260925,190.910400 
	C277.392090,191.063751 274.915253,192.419403 273.982361,193.982513 
	C267.438599,204.947296 261.360107,216.188812 254.872269,227.188171 
	C247.482697,239.716263 239.822433,252.084702 231.916656,265.121399 
	C227.879013,258.240753 224.192474,251.958389 220.096268,244.977890 
	C218.792084,248.130264 218.118042,250.556351 216.868698,252.637009 
	C212.257843,260.315979 212.411087,267.408386 218.553589,274.291107 
	C222.532150,278.749115 223.142792,284.212372 223.000626,290.090118 
	C222.686508,303.079041 222.902939,316.080780 222.902939,329.077301 
	C222.902939,330.660950 222.902939,332.244598 222.902939,333.725372 
	C229.310013,333.725372 235.059723,333.725372 241.044891,333.725372 
	C241.044891,317.477112 240.992523,301.505646 241.109818,285.535492 
	C241.124802,283.491669 241.584183,281.201874 242.587402,279.457123 
	C247.227463,271.387421 252.132385,263.470032 257.645844,255.815994 
	C258.816193,258.547394 259.986542,261.278839 261.182251,264.732391 
	C262.204468,267.156799 263.226654,269.581238 264.303162,272.711792 
	C265.323547,275.143768 266.343933,277.575714 267.475861,280.689117 
	C271.459229,290.796875 275.442596,300.904602 279.325867,310.758270 
	C285.913391,310.758270 291.858795,310.758270 298.587830,310.758270 
	C292.185730,295.236450 285.952118,280.123230 279.648193,264.319885 
	C278.532623,261.839691 277.417084,259.359497 275.989624,256.218567 
M86.217171,397.920685 
	C87.215080,397.961853 88.212982,398.038971 89.210892,398.039062 
	C171.874985,398.045166 254.539062,398.045929 337.203156,398.036835 
	C338.119751,398.036743 339.036316,397.902405 340.320892,397.801971 
	C339.261749,394.991730 338.356873,392.590851 337.436646,390.149170 
	C335.253174,390.149170 333.427094,390.149139 331.601013,390.149139 
	C251.936829,390.149139 172.272644,390.150116 92.608452,390.147491 
	C85.608109,390.147278 85.315620,389.858734 85.315346,382.803131 
	C85.311562,286.806122 85.311531,190.809128 85.315201,94.812126 
	C85.315460,87.949318 85.738113,87.533287 92.731506,87.533012 
	C188.728516,87.529205 284.725525,87.529243 380.722534,87.533585 
	C387.952911,87.533913 387.987274,87.579506 387.987427,94.702621 
	C387.989136,172.700180 387.988495,250.697754 387.988495,328.695312 
	C387.988495,330.461914 387.988495,332.228516 387.988495,334.010529 
	C390.837738,334.885406 393.187195,335.606842 395.738586,336.390259 
	C395.859283,335.375610 396.000702,334.741699 396.000763,334.107788 
	C396.010315,253.276978 396.025208,172.446152 395.983459,91.615372 
	C395.979492,83.940147 391.622986,79.835777 383.665314,79.833939 
	C285.668365,79.811279 187.671417,79.811195 89.674484,79.836945 
	C81.534225,79.839081 77.688858,83.585777 77.685524,91.706238 
	C77.645210,189.703171 77.677635,287.700104 77.606857,385.697021 
	C77.602577,391.613312 79.924118,395.562897 86.217171,397.920685 
M395.973175,373.398651 
	C395.923462,372.401489 395.951813,371.393219 395.812225,370.408813 
	C393.916382,357.039398 383.757996,349.785858 370.011292,351.963135 
	C359.204773,353.674744 351.794525,365.528717 354.079803,377.448364 
	C355.843109,386.645416 365.334656,393.834564 375.372131,393.575684 
	C386.290802,393.294067 394.045380,386.002289 395.973175,373.398651 
z"/>
<path fill="#F9F3E9" opacity="1.000000" stroke="none" 
	d="
M85.813782,397.799957 
	C79.924118,395.562897 77.602577,391.613312 77.606857,385.697021 
	C77.677635,287.700104 77.645210,189.703171 77.685524,91.706238 
	C77.688858,83.585777 81.534225,79.839081 89.674484,79.836945 
	C187.671417,79.811195 285.668365,79.811279 383.665314,79.833939 
	C391.622986,79.835777 395.979492,83.940147 395.983459,91.615372 
	C396.025208,172.446152 396.010315,253.276978 396.000763,334.107788 
	C396.000702,334.741699 395.859283,335.375610 395.738586,336.390259 
	C393.187195,335.606842 390.837738,334.885406 387.988495,334.010529 
	C387.988495,332.228516 387.988495,330.461914 387.988495,328.695312 
	C387.988495,250.697754 387.989136,172.700180 387.987427,94.702621 
	C387.987274,87.579506 387.952911,87.533913 380.722534,87.533585 
	C284.725525,87.529243 188.728516,87.529205 92.731506,87.533012 
	C85.738113,87.533287 85.315460,87.949318 85.315201,94.812126 
	C85.311531,190.809128 85.311562,286.806122 85.315346,382.803131 
	C85.315620,389.858734 85.608109,390.147278 92.608452,390.147491 
	C172.272644,390.150116 251.936829,390.149139 331.601013,390.149139 
	C333.427094,390.149139 335.253174,390.149170 337.436646,390.149170 
	C338.356873,392.590851 339.261749,394.991730 340.320892,397.801971 
	C339.036316,397.902405 338.119751,398.036743 337.203156,398.036835 
	C254.539062,398.045929 171.874985,398.045166 89.210892,398.039062 
	C88.212982,398.038971 87.215080,397.961853 85.813782,397.799957 
z"/>
<path fill="#FDF7ED" opacity="1.000000" stroke="none" 
	d="
M256.942413,255.498093 
	C252.132385,263.470032 247.227463,271.387421 242.587402,279.457123 
	C241.584183,281.201874 241.124802,283.491669 241.109818,285.535492 
	C240.992523,301.505646 241.044891,317.477112 241.044891,333.725372 
	C235.059723,333.725372 229.310013,333.725372 222.902939,333.725372 
	C222.902939,332.244598 222.902939,330.660950 222.902939,329.077301 
	C222.902939,316.080780 222.686508,303.079041 223.000626,290.090118 
	C223.142792,284.212372 222.532150,278.749115 218.553589,274.291107 
	C212.411087,267.408386 212.257843,260.315979 216.868698,252.637009 
	C218.118042,250.556351 218.792084,248.130264 220.096268,244.977890 
	C224.192474,251.958389 227.879013,258.240753 231.916656,265.121399 
	C239.822433,252.084702 247.482697,239.716263 254.872269,227.188171 
	C261.360107,216.188812 267.438599,204.947296 273.982361,193.982513 
	C274.915253,192.419403 277.392090,191.063751 279.260925,190.910400 
	C284.366943,190.491425 289.529877,190.766190 295.546661,190.766190 
	C293.272583,194.579697 291.356171,197.801727 289.431763,201.018982 
	C283.114746,211.579758 276.773499,222.126190 270.501984,232.713928 
	C269.683655,234.095459 269.217987,235.685883 268.287476,237.607239 
	C264.304779,243.855972 260.623596,249.677032 256.942413,255.498093 
z"/>
<path fill="#FCFCFC" opacity="1.000000" stroke="none" 
	d="
M395.942932,373.829803 
	C394.045380,386.002289 386.290802,393.294067 375.372131,393.575684 
	C365.334656,393.834564 355.843109,386.645416 354.079803,377.448364 
	C351.794525,365.528717 359.204773,353.674744 370.011292,351.963135 
	C383.757996,349.785858 393.916382,357.039398 395.812225,370.408813 
	C395.951813,371.393219 395.923462,372.401489 395.942932,373.829803 
z"/>
<path fill="#FBF5EB" opacity="1.000000" stroke="none" 
	d="
M242.200439,215.984863 
	C238.982971,208.118622 235.765503,200.252365 232.034470,191.130539 
	C228.566177,199.908676 225.497116,207.676376 221.845291,215.678894 
	C220.036331,214.700836 218.718079,213.566483 217.602478,212.259201 
	C215.002640,209.212662 212.500336,206.082901 209.958527,202.986847 
	C214.287018,192.042999 218.615646,181.099228 222.942642,170.154785 
	C223.003693,170.000351 223.028427,169.705948 223.096512,169.697830 
	C227.975937,169.115189 232.849335,168.341293 237.746002,168.141541 
	C238.988892,168.090851 240.952469,169.597870 241.488342,170.856140 
	C246.063553,181.599365 250.385956,192.450256 254.467102,203.673828 
	C251.816498,206.955688 249.624161,209.965775 247.091156,212.654953 
	C245.770752,214.056763 243.850021,214.893112 242.200439,215.984863 
z"/>
<path fill="#FCF6EC" opacity="1.000000" stroke="none" 
	d="
M196.032654,237.007233 
	C187.088791,221.875961 178.144943,206.744690 168.716690,190.793884 
	C175.294113,190.793884 181.310272,190.656662 187.308380,190.923920 
	C188.353745,190.970490 189.593826,192.559845 190.283630,193.712219 
	C194.719513,201.122559 199.027222,208.609604 203.726425,216.548004 
	C207.458313,223.164810 210.840805,229.305084 214.223297,235.445343 
	C212.065598,241.173264 209.907883,246.901184 207.137299,252.818115 
	C203.027176,247.673828 199.529907,242.340530 196.032654,237.007233 
z"/>
<path fill="#F9F3EA" opacity="1.000000" stroke="none" 
	d="
M279.718536,265.010010 
	C285.952118,280.123230 292.185730,295.236450 298.587830,310.758270 
	C291.858795,310.758270 285.913391,310.758270 279.325867,310.758270 
	C275.442596,300.904602 271.459229,290.796875 267.746765,280.291992 
	C270.154327,276.643066 272.139221,273.276367 274.482941,270.181396 
	C275.948608,268.245911 277.954865,266.719788 279.718536,265.010010 
z"/>
<path fill="#F9F3EA" opacity="1.000000" stroke="none" 
	d="
M196.544495,281.164856 
	C193.059052,290.195435 189.670044,299.265839 185.975647,308.210114 
	C185.469681,309.435059 183.483780,310.716522 182.113434,310.797760 
	C176.976822,311.102295 171.811310,310.919708 165.866104,310.919708 
	C172.132217,295.429688 178.237167,280.338074 184.794800,265.312317 
	C186.854156,267.634918 188.456024,269.895111 190.068680,272.147552 
	C192.222885,275.156464 194.385498,278.159363 196.544495,281.164856 
z"/>
<path fill="#DFDAD1" opacity="1.000000" stroke="none" 
	d="
M257.294128,255.657043 
	C260.623596,249.677032 264.304779,243.855972 268.318054,237.996552 
	C270.220245,241.660385 271.790314,245.362595 273.069824,249.507812 
	C271.323059,251.354996 269.695862,252.623032 268.446411,254.191895 
	C265.908539,257.378632 263.574799,260.727936 261.156891,264.010254 
	C259.986542,261.278839 258.816193,258.547394 257.294128,255.657043 
z"/>
<path fill="#F1EBE2" opacity="1.000000" stroke="none" 
	d="
M209.689819,203.210236 
	C212.500336,206.082901 215.002640,209.212662 217.602478,212.259201 
	C218.718079,213.566483 220.036331,214.700836 221.607941,215.948853 
	C220.673233,219.439331 219.393127,222.894699 217.606171,226.616913 
	C213.380966,222.216461 209.662598,217.549164 205.944214,212.881866 
	C207.103180,209.732452 208.262131,206.583038 209.689819,203.210236 
z"/>
<path fill="#F4EEE4" opacity="1.000000" stroke="none" 
	d="
M279.683350,264.664948 
	C277.954865,266.719788 275.948608,268.245911 274.482941,270.181396 
	C272.139221,273.276367 270.154327,276.643066 267.691010,279.951294 
	C266.343933,277.575714 265.323547,275.143768 264.610748,272.309509 
	C265.926147,270.656891 266.971863,269.434998 267.934570,268.150848 
	C270.741333,264.406982 273.514954,260.638245 276.301544,256.879272 
	C277.417084,259.359497 278.532623,261.839691 279.683350,264.664948 
z"/>
<path fill="#EDE7DE" opacity="1.000000" stroke="none" 
	d="
M276.145569,256.548920 
	C273.514954,260.638245 270.741333,264.406982 267.934570,268.150848 
	C266.971863,269.434998 265.926147,270.656891 264.583618,271.956421 
	C263.226654,269.581238 262.204468,267.156799 261.169556,264.371338 
	C263.574799,260.727936 265.908539,257.378632 268.446411,254.191895 
	C269.695862,252.623032 271.323059,251.354996 273.164429,249.882172 
	C274.362946,251.948517 275.176270,254.083542 276.145569,256.548920 
z"/>
<path fill="#EDE7DE" opacity="1.000000" stroke="none" 
	d="
M201.956909,265.986633 
	C201.211655,268.517059 200.466400,271.047516 199.126465,273.673584 
	C196.853073,271.177032 195.332504,268.462738 193.451599,266.026642 
	C191.534851,263.544098 189.263657,261.335236 187.147644,259.006531 
	C187.953659,256.844391 188.759659,254.682251 190.172882,252.269272 
	C192.057678,253.083206 193.595917,253.953705 194.562546,255.250320 
	C197.157959,258.731689 199.508896,262.395355 201.956909,265.986633 
z"/>
<path fill="#F4EEE4" opacity="1.000000" stroke="none" 
	d="
M186.943954,259.295410 
	C189.263657,261.335236 191.534851,263.544098 193.451599,266.026642 
	C195.332504,268.462738 196.853073,271.177032 198.849731,273.919434 
	C198.420944,276.251984 197.674194,278.434418 196.735962,280.890839 
	C194.385498,278.159363 192.222885,275.156464 190.068680,272.147552 
	C188.456024,269.895111 186.854156,267.634918 185.068970,265.076477 
	C185.507050,263.044586 186.123642,261.314453 186.943954,259.295410 
z"/>
<path fill="#E6E1D8" opacity="1.000000" stroke="none" 
	d="
M202.189636,265.740051 
	C199.508896,262.395355 197.157959,258.731689 194.562546,255.250320 
	C193.595917,253.953705 192.057678,253.083206 190.410858,252.016235 
	C190.827408,249.816956 191.613190,247.619873 193.018219,245.239395 
	C194.886093,246.298721 196.402725,247.369629 197.331192,248.817657 
	C199.747147,252.585541 201.904892,256.518982 204.165649,260.386353 
	C203.584549,262.088715 203.003448,263.791107 202.189636,265.740051 
z"/>
<path fill="#EDE7DE" opacity="1.000000" stroke="none" 
	d="
M242.208160,216.344879 
	C243.850021,214.893112 245.770752,214.056763 247.091156,212.654953 
	C249.624161,209.965775 251.816498,206.955688 254.485931,204.034485 
	C255.118835,205.672211 256.204346,207.765732 255.577972,208.965637 
	C252.726013,214.429199 249.392563,219.641403 245.852570,225.581070 
	C244.412262,222.065643 243.314072,219.385269 242.208160,216.344879 
z"/>
<path fill="#DFDAD1" opacity="1.000000" stroke="none" 
	d="
M204.452591,260.161560 
	C201.904892,256.518982 199.747147,252.585541 197.331192,248.817657 
	C196.402725,247.369629 194.886093,246.298721 193.282196,245.014343 
	C193.828384,242.508774 194.729843,240.044861 195.831985,237.294098 
	C199.529907,242.340530 203.027176,247.673828 206.884918,253.062531 
	C206.410095,255.390869 205.574814,257.663818 204.452591,260.161560 
z"/>
<path fill="#E6E1D8" opacity="1.000000" stroke="none" 
	d="
M205.681564,213.090942 
	C209.662598,217.549164 213.380966,222.216461 217.430679,226.934479 
	C216.758118,229.639130 215.754211,232.293076 214.486801,235.196182 
	C210.840805,229.305084 207.458313,223.164810 204.064377,216.688721 
	C204.508255,215.335251 204.963593,214.317627 205.681564,213.090942 
z"/>
</svg>